<?xml version="1.0" encoding="UTF-8" standalone="no"?>
<!-- Created with Inkscape (http://www.inkscape.org/) -->

<svg
   xmlns:dc="http://purl.org/dc/elements/1.1/"
   xmlns:cc="http://creativecommons.org/ns#"
   xmlns:rdf="http://www.w3.org/1999/02/22-rdf-syntax-ns#"
   xmlns:svg="http://www.w3.org/2000/svg"
   xmlns="http://www.w3.org/2000/svg"
   xmlns:sodipodi="http://sodipodi.sourceforge.net/DTD/sodipodi-0.dtd"
   xmlns:inkscape="http://www.inkscape.org/namespaces/inkscape"
   width="210mm"
   height="297mm"
   id="svg3324"
   version="1.1"
   inkscape:version="0.48.1 "
   sodipodi:docname="uaBackgroundDarkBlue.pdf">
  <defs
     id="defs3">
    <clipPath
       id="clipPath3009"
       clipPathUnits="userSpaceOnUse">
      <path
         inkscape:connector-curvature="0"
         id="path3011"
         clip-rule="evenodd"
         d="M -1.317e-6,1.8311e-4 720,1.8311e-4 720,540.00018 l -720.000001317,0 0,-539.99999689 z" />
    </clipPath>
    <clipPath
       id="clipPath3019"
       clipPathUnits="userSpaceOnUse">
      <path
         inkscape:connector-curvature="0"
         id="path3021"
         d="m 0,0 956.22,0 0,174.32 L 0,174.32 0,0 z" />
    </clipPath>
  </defs>
  <sodipodi:namedview
     inkscape:document-units="mm"
     id="base"
     pagecolor="#ffffff"
     bordercolor="#666666"
     borderopacity="1.0"
     inkscape:pageopacity="0.0"
     inkscape:pageshadow="2"
     inkscape:zoom="0.7"
     inkscape:cx="195.4541"
     inkscape:cy="981.85132"
     inkscape:current-layer="layer1"
     showgrid="false"
     inkscape:window-width="1280"
     inkscape:window-height="740"
     inkscape:window-x="-4"
     inkscape:window-y="-4"
     inkscape:window-maximized="1" />
  <metadata
     id="metadata4">
    <rdf:RDF>
      <cc:Work
         rdf:about="">
        <dc:format>image/svg+xml</dc:format>
        <dc:type
           rdf:resource="http://purl.org/dc/dcmitype/StillImage" />
        <dc:title></dc:title>
      </cc:Work>
    </rdf:RDF>
  </metadata>
  <g
     inkscape:label="Layer 1"
     inkscape:groupmode="layer"
     id="layer1">
    <g
       id="g3005"
       transform="matrix(1.25,0,0,-1.25,-127.14286,434.51989)">
      <g
         clip-path="url(#clipPath3009)"
         id="g3007">
        <g
           transform="matrix(10.012,0,0,1.8251,-0.34301,-0.092346)"
           id="g3013">
          <g
             transform="scale(0.075297,0.41302)"
             id="g3015">
            <g
               clip-path="url(#clipPath3019)"
               id="g3017">
              <g
                 id="g3023">
                <g
                   id="g3025">
                  <g
                     id="g3027" />
                </g>
                <path
                   id="path3029"
                   style="fill:#990033;fill-opacity:1;fill-rule:nonzero;stroke:none"
                   d="m -2.8e-7,0.31058 0,124.53942 0,0 9.21600028,-1.5 27.15,-3.23 19.677,-2.25 23.414,-2.24 27.153,-2.49 30.38,-2.49 33.63,-2.24 36.62,-1.99 39.6,-1.5 20.67,-0.74 21.17,-0.5 21.92,-0.5 22.42,-0.25 23.17,0 23.41,0.25 24.16,0.25 24.41,0.5 24.91,0.74 25.4,1 0,0 25.41,1.24 24.91,1.5 24.41,1.49 24.16,1.75 23.41,1.99 23.17,1.99 22.41,2.24 21.92,2.25 41.85,4.98 39.6,4.98 36.37,5.23 33.63,5.23 30.38,4.98 26.9,4.73 23.42,4.24 19.67,3.98 26.91,5.73 9.46,1.99 0,-165.87942 L -2.8e-7,0.31058 z"
                   inkscape:connector-curvature="0" />
                <path
                   id="path3031"
                   style="fill:#004466;fill-opacity:1;fill-rule:nonzero;stroke:none"
                   d="m -2.8e-7,0.31058 0,100.62942 0,0 L 9.216,99.941 l 27.15,-2.242 19.677,-1.494 23.414,-1.495 26.903,-1.245 30.39,-1.495 33.87,-0.996 36.62,-0.747 39.35,-0.498 42.09,0.249 21.67,0.249 22.67,0.498 22.92,0.498 23.66,0.747 23.91,0.997 24.66,1.245 24.91,1.495 25.4,1.494 0,0 25.16,1.993 25.16,1.996 24.41,2.24 23.91,2.49 23.66,2.49 22.92,2.74 22.42,2.99 21.91,2.99 21.43,3.24 20.67,2.98 19.93,3.24 19.42,3.24 36.62,6.72 33.63,6.48 30.38,6.23 26.9,5.73 23.42,5.48 19.67,4.73 15.45,3.98 11.46,2.99 9.46,2.49 0,-174.34942 L -2.8e-7,0.31058 z"
                   inkscape:connector-curvature="0" />
                <path
                   id="path3033"
                   style="fill:#ffffff;fill-opacity:1;fill-rule:nonzero;stroke:none"
                   d="m 807.77,75.781 0,0 1.49,0.249 1.5,0.249 0.99,0.498 1,0.996 0.75,0.996 0.5,0.997 0.25,1.494 0,1.246 0,10.212 -2,0 0,-10.212 0,0 -0.25,-1.993 -0.25,-0.996 -0.49,-0.748 -0.5,-0.498 -0.75,-0.498 -1,-0.249 -1.24,0 0,0 -1,0 -0.99,0.249 -0.75,0.498 -0.5,0.498 -0.5,0.499 -0.25,0.996 -0.25,2.242 0,10.212 -1.99,0 0,-10.462 0,0 0,-1.494 0.25,-1.245 0.5,-1.246 0.5,-0.747 0.99,-0.747 1,-0.498 1.25,-0.249 1.74,-0.249 z"
                   inkscape:connector-curvature="0" />
                <path
                   id="path3035"
                   style="fill:#ffffff;fill-opacity:1;fill-rule:nonzero;stroke:none"
                   d="m 824.46,87.736 0,0 -1,-0.249 -1.24,-0.249 -1,-0.747 -1.25,-0.997 0,0 0,1.246 -0.24,0.747 -1.75,0 0,-11.457 1.99,0 0,7.97 0,0 1,0.747 1,0.747 0.99,0.25 0.75,0.249 0,0 0.75,-0.249 0.5,-0.25 0.24,-0.498 0,-0.747 0,-8.219 2,0 0,8.468 0,0 0,1.246 -0.5,0.996 -1,0.747 -1.24,0.249 z"
                   inkscape:connector-curvature="0" />
                <path
                   id="path3037"
                   style="fill:#ffffff;fill-opacity:1;fill-rule:nonzero;stroke:none"
                   d="m 831.18,76.03 1.7435,0 0,11.457 -1.7435,0 0,-11.457 z"
                   inkscape:connector-curvature="0" />
                <path
                   id="path3039"
                   style="fill:#ffffff;fill-opacity:1;fill-rule:nonzero;stroke:none"
                   d="m 830.93,89.978 2.2417,0 0,1.9926 -2.2417,0 0,-1.9926 z"
                   inkscape:connector-curvature="0" />
                <path
                   id="path3041"
                   style="fill:#ffffff;fill-opacity:1;fill-rule:nonzero;stroke:none"
                   d="m 841.4,76.03 4.48,11.208 -1.74,0 -3.24,-8.22 0,0 -0.25,-0.996 0,0 -0.25,0.996 -2.99,8.22 -2.24,0 4.48,-11.208 1.75,0 z"
                   inkscape:connector-curvature="0" />
                <path
                   id="path3043"
                   style="fill:#ffffff;fill-opacity:1;fill-rule:nonzero;stroke:none"
                   d="m 852.11,75.781 0,0 1.49,0.249 1.25,0.249 0.99,0.498 1,0.498 -0.5,1.245 0,0 -1.74,-0.747 -1,-0.249 -1,-0.249 0,0 -1.49,0.249 -0.5,0.498 -0.5,0.249 -0.5,0.747 -0.24,0.748 0,1.743 7.22,0 0,0 0.25,1.744 0,0 -0.25,1.743 -0.5,0.748 -0.25,0.747 -0.75,0.498 -0.49,0.249 -1,0.249 -0.75,0 0,0 -1.24,0 -1,-0.249 -1,-0.498 -0.74,-0.747 -0.75,-0.997 -0.5,-0.996 -0.25,-1.494 0,-1.495 0,0 0,-1.245 0.25,-0.997 0.5,-0.996 0.5,-0.747 0.75,-0.498 0.74,-0.498 1,-0.249 1,0 z m 0.49,10.212 0,0 1,0 0.75,-0.748 0.5,-0.747 0,-1.245 0,-0.249 -5.48,0 0,0 0.49,1.245 0.5,0.996 1,0.748 1.24,0 z"
                   inkscape:connector-curvature="0" />
                <path
                   id="path3045"
                   style="fill:#ffffff;fill-opacity:1;fill-rule:nonzero;stroke:none"
                   d="m 861.82,84.498 0,0 -0.25,1.993 0,0.996 -1.74,0 0,-11.457 1.99,0 0,6.476 0,0 1.25,1.743 0.74,0.996 0.5,0.499 0.75,0 0,0 0.75,0 0.24,1.743 0,0 -1.24,0 0,0 -0.75,0 -0.75,-0.498 -0.74,-0.996 -0.75,-1.495 z"
                   inkscape:connector-curvature="0" />
                <path
                   id="path3047"
                   style="fill:#ffffff;fill-opacity:1;fill-rule:nonzero;stroke:none"
                   d="m 872.03,82.506 0,0 -1.24,0.498 -0.75,0.249 -0.25,0.498 -0.25,0.747 0,0 0.25,0.498 0.25,0.498 0.75,0.25 0.99,0.249 0,0 1.75,-0.249 1.49,-0.499 0.5,1.495 0,0 -1.74,0.747 -1.75,0.249 0,0 -1.99,-0.249 -1.25,-0.747 -0.49,-0.498 -0.25,-0.748 -0.25,-0.498 -0.25,-0.747 0,0 0.25,-0.996 0.5,-0.997 1.24,-0.747 1.74,-0.747 0,0 1.25,-0.498 0.75,-0.249 0.25,-0.498 0.25,-0.748 0,0 -0.25,-0.498 -0.5,-0.498 -0.5,-0.249 -1.25,-0.249 0,0 -1.74,0.249 -1.99,0.747 -0.5,-1.494 0,0 1.99,-0.747 2,-0.249 0,0 1.24,0 1,0.249 0.74,0.249 0.5,0.498 0.5,0.498 0.25,0.498 0.25,1.245 0,0 0,0.997 -0.5,0.996 -1.24,0.747 -1.75,0.748 z"
                   inkscape:connector-curvature="0" />
                <path
                   id="path3049"
                   style="fill:#ffffff;fill-opacity:1;fill-rule:nonzero;stroke:none"
                   d="m 878.76,76.03 1.7435,0 0,11.457 -1.7435,0 0,-11.457 z"
                   inkscape:connector-curvature="0" />
                <path
                   id="path3051"
                   style="fill:#ffffff;fill-opacity:1;fill-rule:nonzero;stroke:none"
                   d="m 878.51,89.978 2.2417,0 0,1.9926 -2.2417,0 0,-1.9926 z"
                   inkscape:connector-curvature="0" />
                <path
                   id="path3053"
                   style="fill:#ffffff;fill-opacity:1;fill-rule:nonzero;stroke:none"
                   d="m 890.22,78.022 0,0 -1.25,-0.498 -1,0 0,0 -0.74,0 -0.25,0.249 -0.25,0.249 0,0.747 0,6.975 3.49,0 0.24,1.743 -3.73,0 0,3.736 -1.75,-0.249 -0.24,-3.736 -1.5,0 0,-1.245 1.5,-0.249 0,-7.224 0,0 0,-1.245 0.49,-0.747 1,-0.498 1.25,-0.249 0,0 1.74,0.249 1.49,0.498 -0.49,1.494 z"
                   inkscape:connector-curvature="0" />
                <path
                   id="path3055"
                   style="fill:#ffffff;fill-opacity:1;fill-rule:nonzero;stroke:none"
                   d="m 897.19,75.781 0,0 1.24,0.249 1.25,0.249 1.25,0.498 0.99,0.498 -0.75,1.245 0,0 -1.74,-0.747 -1,-0.249 -0.74,-0.249 0,0 -1.5,0.249 -0.74,0.498 -0.5,0.249 -0.25,0.747 -0.25,0.748 -0.25,1.743 7.47,0 0,0 0,1.744 0,0 -0.25,1.743 -0.25,0.748 -0.49,0.747 -0.5,0.498 -0.75,0.249 -0.75,0.249 -0.99,0 0,0 -1,0 -1.24,-0.249 -1,-0.498 -0.75,-0.747 -0.5,-0.997 -0.49,-0.996 -0.25,-1.494 -0.25,-1.495 0,0 0.25,-1.245 0.25,-0.997 0.24,-0.996 0.75,-0.747 0.75,-0.498 0.75,-0.498 0.99,-0.249 1,0 z m 0.5,10.212 0,0 0.99,0 0.75,-0.748 0.25,-0.747 0.25,-1.245 0,-0.249 -5.73,0 0,0 0.5,1.245 0.75,0.996 0.99,0.748 1.25,0 z"
                   inkscape:connector-curvature="0" />
                <path
                   id="path3057"
                   style="fill:#ffffff;fill-opacity:1;fill-rule:nonzero;stroke:none"
                   d="m 904.91,76.03 1.9927,0 0,11.457 -1.9927,0 0,-11.457 z"
                   inkscape:connector-curvature="0" />
                <path
                   id="path3059"
                   style="fill:#ffffff;fill-opacity:1;fill-rule:nonzero;stroke:none"
                   d="m 904.66,89.978 2.2418,0 0,1.9926 -2.2418,0 0,-1.9926 z"
                   inkscape:connector-curvature="0" />
                <path
                   id="path3061"
                   style="fill:#ffffff;fill-opacity:1;fill-rule:nonzero;stroke:none"
                   d="m 916.62,78.022 0,0 -1.25,-0.498 -1.24,0 0,0 -0.5,0 -0.5,0.249 -0.25,0.249 0,0.747 0,6.975 3.74,0 0,1.743 -3.74,0 0,3.736 -1.74,-0.249 -0.25,-3.736 -1.5,0 0,-1.245 1.5,-0.249 0,-7.224 0,0 0.25,-1.245 0.5,-0.747 0.74,-0.498 1.25,-0.249 0,0 1.74,0.249 1.5,0.498 -0.25,1.494 z"
                   inkscape:connector-curvature="0" />
                <path
                   id="path3063"
                   style="fill:#ffffff;fill-opacity:1;fill-rule:nonzero;stroke:none"
                   d="m 807.27,63.825 -6.23,-16.688 2,0 1.99,4.981 6.23,0 1.74,-4.981 2.24,0 -5.98,16.688 -1.99,0 z m -1.74,-10.212 2.24,6.725 0,0 0.5,1.245 0,0 0.25,-1.245 2.24,-6.725 -5.23,0 z"
                   inkscape:connector-curvature="0" />
                <path
                   id="path3065"
                   style="fill:#ffffff;fill-opacity:1;fill-rule:nonzero;stroke:none"
                   d="m 823.96,58.843 0,0 -1.25,-0.249 -0.99,-0.249 -1,-0.747 -1.24,-0.996 0,0 0,1.245 -0.25,0.747 -1.75,0 0,-11.457 2,0 0,7.97 0,0 0.99,0.997 1,0.498 1,0.498 0.74,0 0,0 0.75,0 0.5,-0.498 0.25,-0.498 0,-0.748 0,-8.219 1.99,0 0,8.468 0,0 -0.25,1.495 -0.5,0.996 -0.75,0.498 -1.24,0.249 z"
                   inkscape:connector-curvature="0" />
                <path
                   id="path3067"
                   style="fill:#ffffff;fill-opacity:1;fill-rule:nonzero;stroke:none"
                   d="m 833.92,48.631 0,0 -0.5,0 -0.49,0.249 -0.25,0.249 0,0.748 0,7.223 3.73,0 0,1.494 -3.73,0 0,3.736 -1.75,-0.249 -0.25,-3.487 -1.49,-0.249 0,-1.245 1.49,0 0,-7.472 0,0 0.25,-1.246 0.5,-0.747 0.75,-0.498 1.24,-0.249 0,0 1.75,0.249 1.49,0.498 -0.25,1.494 0,0 -1.24,-0.498 -1.25,0 z"
                   inkscape:connector-curvature="0" />
                <path
                   id="path3069"
                   style="fill:#ffffff;fill-opacity:1;fill-rule:nonzero;stroke:none"
                   d="m 849.86,50.375 0,0 -0.25,-1.246 0,0 -0.24,1.246 -2.74,8.219 -1.5,0 -2.74,-8.219 0,0 -0.25,-1.246 0,0 -0.25,1.246 -2.49,8.219 -1.99,0 3.74,-11.457 1.49,0 2.74,8.219 0,0 0.25,1.246 0,0 0.25,-1.246 2.74,-8.219 1.74,0 3.99,11.457 -1.75,0 -2.74,-8.219 z"
                   inkscape:connector-curvature="0" />
                <path
                   id="path3071"
                   style="fill:#ffffff;fill-opacity:1;fill-rule:nonzero;stroke:none"
                   d="m 861.07,48.631 0,0 -1.49,0.249 -0.5,0.249 -0.5,0.499 -0.5,0.498 -0.25,0.747 -0.24,1.743 7.47,0 0,0 0,1.744 0,0 -0.25,1.744 -0.25,0.747 -0.5,0.747 -0.5,0.498 -0.74,0.249 -0.75,0.249 -0.75,0.249 0,0 -1.24,-0.249 -1.25,-0.249 -0.75,-0.498 -0.99,-0.747 -0.5,-0.996 -0.5,-0.997 -0.25,-1.494 -0.25,-1.495 0,0 0.25,-1.245 0.25,-0.996 0.5,-0.997 0.5,-0.747 0.74,-0.498 0.75,-0.498 1,0 0.99,-0.249 0,0 1.5,0.249 1,0.249 1.24,0.498 1,0.498 -0.75,1.246 0,0 -1.74,-0.748 -0.75,-0.249 -1,0 z m 0,8.718 0,0 1,-0.249 0.75,-0.498 0.49,-0.997 0,-1.245 0,-0.249 -5.48,0 0,0 0.25,1.245 0.75,0.997 1,0.747 1.24,0.249 z"
                   inkscape:connector-curvature="0" />
                <path
                   id="path3073"
                   style="fill:#ffffff;fill-opacity:1;fill-rule:nonzero;stroke:none"
                   d="m 870.04,55.605 0,0 0,1.993 -0.25,0.996 -1.49,0 0,-11.457 1.99,0 0,6.476 0,0 0.99,1.992 0.75,0.997 0.75,0.249 0.75,0.249 0,0 0.74,0 0.25,1.494 0,0 -1.24,0.249 0,0 -0.75,-0.249 -0.75,-0.498 -0.74,-0.996 -1,-1.495 z"
                   inkscape:connector-curvature="0" />
                <path
                   id="path3075"
                   style="fill:#ffffff;fill-opacity:1;fill-rule:nonzero;stroke:none"
                   d="m 882.24,58.843 0,0 -1.24,-0.249 -0.75,-0.249 -0.99,-0.498 -0.75,-0.747 0,0 -0.25,1.494 -1.74,0 0,-16.439 1.99,0.249 0,4.982 0,0 0.99,-0.249 1.5,-0.249 0,0 1.24,0.249 1,0.249 1,0.747 0.74,0.747 0.75,0.748 0.25,1.245 0.25,0.996 0.25,1.246 0,0 -0.25,1.494 0,0.996 -0.5,0.997 -0.5,0.747 -0.49,0.747 -0.75,0.249 -1,0.249 -0.75,0.249 z M 881,48.382 l 0,0 -1.25,0.249 -1.24,0.249 0,6.725 0,0 0.75,0.499 0.49,0.498 1,0.498 0.75,0 0,0 0.74,0 0.5,-0.249 0.5,-0.249 0.5,-0.498 0.5,-1.495 0.25,-1.494 0,0 -0.25,-1.993 -0.25,-0.747 -0.5,-0.747 -0.5,-0.499 -0.5,-0.498 -0.74,-0.249 -0.75,0 z"
                   inkscape:connector-curvature="0" />
                <path
                   id="path3077"
                   style="fill:#ffffff;fill-opacity:1;fill-rule:nonzero;stroke:none"
                   d="m 893.95,48.631 0,0 -1.49,0.249 -0.5,0.249 -0.5,0.499 -0.5,0.498 -0.25,0.747 -0.25,1.743 7.48,0 0,0 0,1.744 0,0 -0.25,1.744 -0.25,0.747 -0.5,0.747 -0.5,0.498 -0.75,0.249 -0.74,0.249 -0.75,0.249 0,0 -1.25,-0.249 -1.24,-0.249 -0.75,-0.498 -0.99,-0.747 -0.5,-0.996 -0.5,-0.997 -0.25,-1.494 0,-1.495 0,0 0,-1.245 0.25,-0.996 0.5,-0.997 0.5,-0.747 0.74,-0.498 0.75,-0.498 1,0 0.99,-0.249 0,0 1.5,0.249 0.99,0.249 1.25,0.498 1,0.498 -0.75,1.246 0,0 -1.75,-0.748 -0.74,-0.249 -1,0 z m 0,8.718 0,0 1,-0.249 0.74,-0.498 0.5,-0.997 0,-1.245 0,-0.249 -5.48,0 0,0 0.25,1.245 0.75,0.997 1,0.747 1.24,0.249 z"
                   inkscape:connector-curvature="0" />
                <path
                   id="path3079"
                   style="fill:#ffffff;fill-opacity:1;fill-rule:nonzero;stroke:none"
                   d="m 907.65,58.843 0,0 -1.24,-0.249 -1,-0.249 -1,-0.747 -1.24,-0.996 0,0 0,1.245 -0.25,0.747 -1.75,0 0,-11.457 2,0 0,7.97 0,0 0.99,0.997 1,0.498 1,0.498 0.74,0 0,0 0.75,0 0.5,-0.498 0.25,-0.498 0,-0.748 0,-8.219 1.99,0 0,8.468 0,0 -0.25,1.495 -0.5,0.996 -0.74,0.498 -1.25,0.249 z"
                   inkscape:connector-curvature="0" />
                <path
                   id="path3081"
                   style="fill:#ffffff;fill-opacity:1;fill-rule:nonzero;stroke:none"
                   d="m 777.13,72.543 0,20.175 -6.22,0 0,-17.934 0,0 -3.49,1.246 0,0 -3.24,1.245 -2.74,0.498 -2.74,0.249 -2.49,-0.249 -2.24,-0.498 -2.24,-0.498 -1.75,-0.996 -1.74,-0.997 -1.5,-1.245 -1.24,-1.246 -1.99,-1.992 -1,-1.744 -0.5,-0.747 0,0 1.25,0.747 1.74,0.249 2.24,0.249 2.99,0 3.99,-0.747 2.49,-0.498 2.49,-0.996 2.74,-0.997 2.99,-1.494 0,0 2.99,-1.245 2.99,-0.997 0,0 -0.25,-1.992 -0.25,-1.744 -0.25,-1.743 -0.5,-1.495 -0.75,-1.494 -0.74,-1.495 -1,-1.245 -1,-1.245 -0.99,-0.997 -1.25,-0.747 -1.24,-0.996 -1.5,-0.498 -1.49,-0.499 -1.5,-0.498 -1.49,-0.249 -1.75,0 0,0 -1.74,0 -1.74,0.249 -1.5,0.498 -1.49,0.499 -1.5,0.747 -1.24,0.747 -1.25,0.747 -0.99,1.246 -1.25,0.996 -0.75,1.494 -0.74,1.246 -0.75,1.494 -0.5,1.744 -0.25,1.743 -0.25,1.744 -0.25,1.992 0,30.388 -7.72,0 0,0 -4.73,0 0,-31.135 0,0 0,-1.992 0.25,-1.993 0.5,-1.993 0.5,-1.992 0.74,-1.744 0.75,-1.743 1,-1.495 0.99,-1.494 1.25,-1.495 1.24,-1.245 1.5,-1.245 1.49,-0.997 3.24,-1.992 3.49,-1.246 0,0 0.5,0 0,0 0.74,-0.249 0,0 1.25,-0.249 0,0 2.74,-0.249 2.99,-0.249 2.74,0 2.74,0.249 0,0 1.99,0.249 0,0 1.49,0.498 0,0 0,0 0,0 0,0 0,0 0.5,0 0,0 0,0 0,0 3.24,1.495 2.99,1.743 2.74,1.993 2.49,2.74 1.74,2.989 1.5,3.238 0.99,3.487 0.25,1.992 0.25,1.993 0,0 2.24,-0.249 2,0 1.99,0.249 1.99,0.498 1.5,0.498 1.49,0.747 1.5,0.748 0.99,0.996 1,0.996 0.75,1.246 0.74,0.996 0.5,1.245 0.25,1.246 0,1.245 0,1.245 -0.25,1.246 0,0 -0.75,-1.246 -1.24,-0.747 -1.25,-0.747 -1.74,-0.498 -2.24,0 -2.49,0.249 -3.24,0.747 -3.74,1.246 z"
                   inkscape:connector-curvature="0" />
              </g>
            </g>
          </g>
        </g>
      </g>
    </g>
    <path
       sodipodi:type="arc"
       style="fill:none;stroke:none"
       id="path3558"
       sodipodi:cx="-122.14286"
       sodipodi:cy="64.862183"
       sodipodi:rx="2.1428571"
       sodipodi:ry="3.2142856"
       d="m -120,64.862183 a 2.1428571,3.2142856 0 1 1 -4.28572,0 2.1428571,3.2142856 0 1 1 4.28572,0 z"
       transform="matrix(1,0,0,1.3690665,0,-127.92821)" />
    <path
       sodipodi:type="arc"
       style="fill:none;stroke:none;stroke-width:0.35433071999999999;stroke-miterlimit:4;stroke-opacity:1;stroke-dasharray:none;marker-end:none"
       id="path3560"
       sodipodi:cx="-99.285713"
       sodipodi:cy="26.647896"
       sodipodi:rx="12.142858"
       sodipodi:ry="13.571428"
       d="m -87.142856,26.647896 a 12.142858,13.571428 0 1 1 -24.285714,0 12.142858,13.571428 0 1 1 24.285714,0 z"
       transform="matrix(1,0,0,1.3690665,-9.2857146,-260.71755)" />
  </g>
</svg>
